# xmcd CD database file
#
# Track frame offsets:
#	150
#	44550
#	54500
#	79387
#	109625
#	151225
#	178225
#	197550
#	243337
#
# Disc length: 3491 seconds
#
# Revision: 0
# Processed by: cddbd v1.5.1PL0 Copyright (c) Steve Scherf et al.
# Submitted via: CDex 1.51
#
DISCID=740da109
DTITLE=TV　CM - TV CMクラッシック　フード
DYEAR=1900
DGENRE=Classical
TTITLE0=交響曲第6番「田園｣/ベートーベン
TTITLE1=ハンガリー舞曲第5番/ブラームス
TTITLE2=円舞曲 第1番　華麗なる大円舞曲/ショパン
TTITLE3=ポロネーズ第6番「英雄」/ショパン
TTITLE4=喜歌劇「天国と地獄」序曲/オッフェンバック
TTITLE5=ピアノ・ソナタ第14番「月光」第1楽章/ベートーベン
TTITLE6=弦楽四重奏曲”セレナーデ”第2楽章アンダンテ・カンタービレ/ハイドン
TTITLE7=皇帝円舞曲/ヨハン・シュトラウス?
TTITLE8=ロンド/モーツァルト
EXTD=
EXTT0=
EXTT1=
EXTT2=
EXTT3=
EXTT4=
EXTT5=
EXTT6=
EXTT7=
EXTT8=
PLAYORDER=
